<mxfile host="Electron" modified="2025-06-04T17:28:26.776Z" agent="Mozilla/5.0 (Windows NT 10.0; Win64; x64) AppleWebKit/537.36 (KHTML, like Gecko) draw.io/24.2.5 Chrome/120.0.6099.109 Electron/28.1.0 Safari/537.36" etag="voeSnoNCRaRyFfDU1miX" version="24.2.5" type="device">
  <diagram name="Page-1" id="Kfh8t_Ak4ihm8aRNfu7Z">
    <mxGraphModel dx="1948" dy="802" grid="1" gridSize="10" guides="1" tooltips="1" connect="1" arrows="1" fold="1" page="1" pageScale="1" pageWidth="850" pageHeight="1100" math="0" shadow="0">
      <root>
        <mxCell id="0" />
        <mxCell id="1" parent="0" />
        <mxCell id="OEtIv18NF1MfXvZT3ipg-17" value="&lt;font style=&quot;font-size: 18px;&quot;&gt;Router 1&lt;/font&gt;" style="sketch=0;points=[[0.5,0,0],[1,0.5,0],[0.5,1,0],[0,0.5,0],[0.145,0.145,0],[0.8555,0.145,0],[0.855,0.8555,0],[0.145,0.855,0]];verticalLabelPosition=bottom;html=1;verticalAlign=top;aspect=fixed;align=center;pointerEvents=1;shape=mxgraph.cisco19.rect;prIcon=router;fillColor=#FAFAFA;strokeColor=#005073;" vertex="1" parent="1">
          <mxGeometry x="90" y="265" width="140" height="140" as="geometry" />
        </mxCell>
        <mxCell id="OEtIv18NF1MfXvZT3ipg-18" value="&lt;span style=&quot;font-size: 18px;&quot;&gt;Router 2&lt;/span&gt;" style="sketch=0;points=[[0.5,0,0],[1,0.5,0],[0.5,1,0],[0,0.5,0],[0.145,0.145,0],[0.8555,0.145,0],[0.855,0.8555,0],[0.145,0.855,0]];verticalLabelPosition=bottom;html=1;verticalAlign=top;aspect=fixed;align=center;pointerEvents=1;shape=mxgraph.cisco19.rect;prIcon=router;fillColor=#FAFAFA;strokeColor=#005073;" vertex="1" parent="1">
          <mxGeometry x="685" y="265" width="140" height="140" as="geometry" />
        </mxCell>
        <mxCell id="OEtIv18NF1MfXvZT3ipg-19" value="&lt;div&gt;&lt;font style=&quot;font-size: 17px;&quot;&gt;NETWORK&lt;/font&gt;&lt;/div&gt;&lt;font style=&quot;font-size: 17px;&quot;&gt;IP: 192.168.1.0/24&lt;/font&gt;" style="rounded=1;whiteSpace=wrap;html=1;" vertex="1" parent="1">
          <mxGeometry x="390" y="290" width="170" height="90" as="geometry" />
        </mxCell>
        <mxCell id="OEtIv18NF1MfXvZT3ipg-20" value="&lt;div&gt;&lt;font style=&quot;font-size: 17px;&quot;&gt;NETWORK&lt;br&gt;&lt;/font&gt;&lt;/div&gt;&lt;font style=&quot;font-size: 17px;&quot;&gt;IP: 10.0.0.0/8&lt;/font&gt;" style="rounded=1;whiteSpace=wrap;html=1;" vertex="1" parent="1">
          <mxGeometry x="-220" y="290" width="170" height="90" as="geometry" />
        </mxCell>
        <mxCell id="OEtIv18NF1MfXvZT3ipg-21" value="&lt;div&gt;&lt;font style=&quot;font-size: 17px;&quot;&gt;NETWORK&lt;br&gt;&lt;/font&gt;&lt;/div&gt;&lt;font style=&quot;font-size: 17px;&quot;&gt;IP: 172.16.0.0/16&lt;/font&gt;" style="rounded=1;whiteSpace=wrap;html=1;" vertex="1" parent="1">
          <mxGeometry x="975" y="280" width="190" height="110" as="geometry" />
        </mxCell>
        <mxCell id="OEtIv18NF1MfXvZT3ipg-22" value="" style="endArrow=none;html=1;rounded=0;exitX=1;exitY=0.5;exitDx=0;exitDy=0;entryX=0;entryY=0.5;entryDx=0;entryDy=0;entryPerimeter=0;" edge="1" parent="1" source="OEtIv18NF1MfXvZT3ipg-20" target="OEtIv18NF1MfXvZT3ipg-17">
          <mxGeometry width="50" height="50" relative="1" as="geometry">
            <mxPoint x="120" y="410" as="sourcePoint" />
            <mxPoint x="170" y="360" as="targetPoint" />
          </mxGeometry>
        </mxCell>
        <mxCell id="OEtIv18NF1MfXvZT3ipg-23" value="" style="endArrow=none;html=1;rounded=0;exitX=1;exitY=0.5;exitDx=0;exitDy=0;exitPerimeter=0;" edge="1" parent="1" source="OEtIv18NF1MfXvZT3ipg-17" target="OEtIv18NF1MfXvZT3ipg-19">
          <mxGeometry width="50" height="50" relative="1" as="geometry">
            <mxPoint x="270" y="430" as="sourcePoint" />
            <mxPoint x="280" y="420" as="targetPoint" />
          </mxGeometry>
        </mxCell>
        <mxCell id="OEtIv18NF1MfXvZT3ipg-24" value="" style="endArrow=none;html=1;rounded=0;exitX=1;exitY=0.5;exitDx=0;exitDy=0;entryX=0;entryY=0.5;entryDx=0;entryDy=0;entryPerimeter=0;" edge="1" parent="1" source="OEtIv18NF1MfXvZT3ipg-19" target="OEtIv18NF1MfXvZT3ipg-18">
          <mxGeometry width="50" height="50" relative="1" as="geometry">
            <mxPoint x="585" y="450" as="sourcePoint" />
            <mxPoint x="675" y="450" as="targetPoint" />
          </mxGeometry>
        </mxCell>
        <mxCell id="OEtIv18NF1MfXvZT3ipg-25" value="" style="endArrow=none;html=1;rounded=0;" edge="1" parent="1" target="OEtIv18NF1MfXvZT3ipg-21">
          <mxGeometry width="50" height="50" relative="1" as="geometry">
            <mxPoint x="815" y="335" as="sourcePoint" />
            <mxPoint x="975" y="420" as="targetPoint" />
          </mxGeometry>
        </mxCell>
        <mxCell id="OEtIv18NF1MfXvZT3ipg-26" value="&lt;font style=&quot;font-size: 18px;&quot;&gt;g0/0&lt;/font&gt;&lt;div style=&quot;font-size: 18px;&quot;&gt;&lt;font style=&quot;font-size: 18px;&quot;&gt;10.0.0.1/8&lt;/font&gt;&lt;/div&gt;" style="text;html=1;align=center;verticalAlign=middle;resizable=0;points=[];autosize=1;strokeColor=none;fillColor=none;" vertex="1" parent="1">
          <mxGeometry y="345" width="100" height="60" as="geometry" />
        </mxCell>
        <mxCell id="OEtIv18NF1MfXvZT3ipg-27" value="&lt;font style=&quot;font-size: 18px;&quot;&gt;s0/0/0&lt;/font&gt;&lt;div style=&quot;font-size: 18px;&quot;&gt;&lt;font style=&quot;font-size: 18px;&quot;&gt;192.168.1.1/24&lt;/font&gt;&lt;/div&gt;" style="text;html=1;align=center;verticalAlign=middle;resizable=0;points=[];autosize=1;strokeColor=none;fillColor=none;" vertex="1" parent="1">
          <mxGeometry x="210" y="345" width="140" height="60" as="geometry" />
        </mxCell>
        <mxCell id="OEtIv18NF1MfXvZT3ipg-28" value="&lt;font style=&quot;font-size: 18px;&quot;&gt;s0/0/0&lt;/font&gt;&lt;div style=&quot;font-size: 18px;&quot;&gt;&lt;font style=&quot;font-size: 18px;&quot;&gt;192.168.1.2/24&lt;/font&gt;&lt;/div&gt;" style="text;html=1;align=center;verticalAlign=middle;resizable=0;points=[];autosize=1;strokeColor=none;fillColor=none;" vertex="1" parent="1">
          <mxGeometry x="570" y="360" width="140" height="60" as="geometry" />
        </mxCell>
        <mxCell id="OEtIv18NF1MfXvZT3ipg-29" value="&lt;div style=&quot;font-size: 18px;&quot;&gt;&lt;font style=&quot;font-size: 18px;&quot;&gt;g0/1&lt;/font&gt;&lt;/div&gt;&lt;div style=&quot;font-size: 18px;&quot;&gt;&lt;font style=&quot;font-size: 18px;&quot;&gt;172.16.0.2/16&lt;/font&gt;&lt;/div&gt;" style="text;html=1;align=center;verticalAlign=middle;resizable=0;points=[];autosize=1;strokeColor=none;fillColor=none;" vertex="1" parent="1">
          <mxGeometry x="810" y="360" width="130" height="60" as="geometry" />
        </mxCell>
      </root>
    </mxGraphModel>
  </diagram>
</mxfile>
